# xmcd
#
# Track frame offsets: 
#        150
#        14047
#        31638
#        51132
#        66403
#        84813
#        105127
#        119955
#        137336
#        150947
#        168127
#        197945
#
# Disc length: 2872 seconds
#
# Revision: 0
# Processed by: cddbd v1.5.2PL0 Copyright (c) Steve Scherf et al.
# Submitted via: ExactAudioCopy v1.0b4
#
DISCID=8f0b360c
DTITLE=Alabama Shakes - Sound and Color [disk 1]
DYEAR=2015
DGENRE=Blues Rock
TTITLE0=Sound and Color
TTITLE1=Don't Wanna Fight
TTITLE2=Dunes
TTITLE3=Future People
TTITLE4=Gimme All Your Love
TTITLE5=This Feeling
TTITLE6=Guess Who
TTITLE7=The Greatest
TTITLE8=Shoegaze
TTITLE9=Miss You
TTITLE10=Gemini
TTITLE11=Over My Head
EXTD=
EXTT0=
EXTT1=
EXTT2=
EXTT3=
EXTT4=
EXTT5=
EXTT6=
EXTT7=
EXTT8=
EXTT9=
EXTT10=
EXTT11=
PLAYORDER=
